<svg width="188" height="40" viewBox="0 0 188 40" fill="none" xmlns="http://www.w3.org/2000/svg">
<path d="M183.336 38.46C184.109 38.4095 184.71 37.7679 184.71 36.9933L184.71 5.87948C184.71 5.03 183.992 4.35738 183.144 4.41277L167.466 5.43712C166.693 5.48762 166.092 6.12927 166.092 6.90384L166.092 38.0177C166.092 38.8671 166.81 39.5397 167.658 39.4844L183.336 38.46Z" fill="white"/>
<path d="M187.378 9.33221L187.378 33.8202C187.378 34.445 186.898 34.9649 186.276 35.0148L176.967 35.7595C176.269 35.8153 175.673 35.2644 175.673 34.5649L175.673 10.0769C175.673 9.45212 176.153 8.93215 176.775 8.88232L186.084 8.1376C186.782 8.08181 187.378 8.63266 187.378 9.33221Z" fill="#0D111D" stroke="url(#paint0_linear_49_33)" stroke-width="0.542831"/>
<path d="M43.0054 28.0562C44.0402 28.0562 44.9966 27.8368 45.8745 27.3978C46.7525 26.9588 47.5992 26.2846 48.4144 25.3753L52.9298 30.0787C51.6755 31.5212 50.139 32.65 48.3204 33.4653C46.5017 34.2492 44.6046 34.6411 42.6291 34.6411C40.7791 34.6411 39.0388 34.3119 37.4083 33.6534C35.8091 32.9949 34.4137 32.0856 33.2221 30.9254C32.0619 29.7652 31.1369 28.4012 30.4471 26.8333C29.7886 25.2655 29.4594 23.5723 29.4594 21.7536C29.4594 19.9349 29.7886 18.2416 30.4471 16.6738C31.1369 15.0746 32.0619 13.7106 33.2221 12.5818C34.4137 11.4216 35.8091 10.5122 37.4083 9.85374C39.0388 9.16389 40.7791 8.81897 42.6291 8.81897C44.6673 8.81897 46.6114 9.22661 48.4615 10.0419C50.3115 10.8571 51.8793 11.986 53.165 13.4284L48.5085 18.273C47.6305 17.3009 46.7368 16.5797 45.8275 16.1094C44.9182 15.639 43.9147 15.4039 42.8173 15.4039C41.1867 15.4039 39.807 16.0153 38.6782 17.2382C37.5807 18.4611 37.032 19.9662 37.032 21.7536C37.032 23.5409 37.5964 25.046 38.7252 26.2689C39.8854 27.4605 41.3122 28.0562 43.0054 28.0562Z" fill="white"/>
<path d="M23.9408 30.8313C22.3729 32.1483 20.7581 33.1047 19.0962 33.7004C17.4656 34.2962 15.6156 34.5941 13.5461 34.5941C11.6647 34.5941 9.89301 34.2649 8.23111 33.6064C6.56921 32.9479 5.12681 32.0385 3.9039 30.8783C2.71235 29.7181 1.75597 28.3541 1.03477 26.7863C0.344923 25.1871 0 23.4939 0 21.7065C0 19.9192 0.329244 18.2416 0.987733 16.6738C1.67758 15.0746 2.6026 13.6949 3.76279 12.5347C4.92299 11.3745 6.287 10.4652 7.85483 9.8067C9.45402 9.14821 11.163 8.81897 12.9816 8.81897C14.8003 8.81897 16.4779 9.16389 18.0144 9.85374C19.5508 10.5436 20.8678 11.4843 21.9653 12.6758C23.0941 13.8674 23.9721 15.3098 24.5993 17.003C25.2264 18.6649 25.54 20.468 25.54 22.4121V24.2935H7.8078C8.3095 25.4537 9.09342 26.41 10.1595 27.1626C11.2257 27.8838 12.4799 28.2444 13.9223 28.2444C14.9571 28.2444 15.8978 28.0876 16.7444 27.774C17.5911 27.4291 18.3123 26.9588 18.908 26.363L23.9408 30.8313ZM12.8405 15.0276C11.5863 15.0276 10.5045 15.3725 9.59512 16.0623C8.68578 16.7522 8.04297 17.7242 7.66669 18.9785H18.0614C17.6538 17.787 16.9796 16.8306 16.0389 16.1094C15.1296 15.3882 14.0634 15.0276 12.8405 15.0276Z" fill="white"/>
<path d="M75.5851 34.5707V1.64622L83.2047 0V11.3824C84.1141 10.6926 85.1332 10.1595 86.262 9.78326C87.4222 9.40698 88.6294 9.21884 89.8837 9.21884C92.7999 9.21884 95.183 10.1595 97.033 12.0409C98.883 13.9223 99.8081 16.3211 99.8081 19.2373V34.5707H92.1884V20.272C92.1884 18.9237 91.7651 17.8419 90.9185 17.0266C90.1032 16.18 89.0214 15.7567 87.6731 15.7567C86.701 15.7567 85.8387 15.9292 85.0861 16.2741C84.3336 16.619 83.7064 17.105 83.2047 17.7322V34.5707H75.5851Z" fill="white"/>
<path d="M57.0846 26.8216V15.8625V9.51276V3.11601L64.7042 1.46979V9.51276H71.6654V15.8625H64.7042V25.3165C64.7042 26.414 64.9394 27.1979 65.4098 27.6682C65.9115 28.1072 66.7738 28.3267 67.9967 28.3267C68.5925 28.3267 69.1569 28.2954 69.6899 28.2327C70.223 28.1386 70.8031 27.9975 71.4302 27.8093V33.9709C70.7404 34.1904 69.8624 34.3629 68.7963 34.4883C67.7302 34.6451 66.8365 34.7235 66.1153 34.7235C63.1364 34.7235 60.8787 34.065 59.3423 32.748C57.8372 31.3997 57.0846 29.4242 57.0846 26.8216Z" fill="white"/>
<path d="M103.728 21.7536C103.728 19.9662 104.072 18.2887 104.762 16.7208C105.484 15.1216 106.44 13.742 107.631 12.5818C108.854 11.4216 110.281 10.5122 111.912 9.85374C113.574 9.16389 115.345 8.81897 117.227 8.81897C119.108 8.81897 120.864 9.16389 122.494 9.85374C124.156 10.5122 125.583 11.4216 126.775 12.5818C127.998 13.742 128.954 15.1216 129.644 16.7208C130.365 18.2887 130.726 19.9662 130.726 21.7536C130.726 23.5409 130.365 25.2342 129.644 26.8333C128.954 28.4012 127.998 29.7652 126.775 30.9254C125.583 32.0856 124.156 32.9949 122.494 33.6534C120.864 34.3119 119.108 34.6411 117.227 34.6411C115.345 34.6411 113.574 34.3119 111.912 33.6534C110.281 32.9949 108.854 32.0856 107.631 30.9254C106.44 29.7652 105.484 28.4012 104.762 26.8333C104.072 25.2342 103.728 23.5409 103.728 21.7536ZM117.227 28.0562C118.92 28.0562 120.347 27.4448 121.507 26.2219C122.698 24.999 123.294 23.5095 123.294 21.7536C123.294 19.9662 122.698 18.4611 121.507 17.2382C120.347 16.0153 118.92 15.4039 117.227 15.4039C115.533 15.4039 114.091 16.0153 112.899 17.2382C111.739 18.4611 111.159 19.9662 111.159 21.7536C111.159 23.5095 111.739 24.999 112.899 26.2219C114.091 27.4448 115.533 28.0562 117.227 28.0562Z" fill="white"/>
<path d="M134.645 34.6608V9.77934H142.265V11.4726C143.174 10.7828 144.193 10.2497 145.322 9.87341C146.482 9.49713 147.69 9.30899 148.944 9.30899C151.86 9.30899 154.243 10.2497 156.093 12.1311C157.943 14.0125 158.868 16.4113 158.868 19.3274V34.6608H151.249V20.3622C151.249 19.0139 150.825 17.9321 149.979 17.1168C149.163 16.2702 148.082 15.8468 146.733 15.8468C145.761 15.8468 144.899 16.0193 144.146 16.3642C143.394 16.7092 142.767 17.1952 142.265 17.8223V34.6608H134.645Z" fill="white"/>
<defs>
<linearGradient id="paint0_linear_49_33" x1="187.65" y1="2.4161" x2="175.301" y2="40.134" gradientUnits="userSpaceOnUse">
<stop stop-color="#514EFF"/>
<stop offset="1" stop-color="#0ACF83"/>
</linearGradient>
</defs>
</svg>
